<svg xmlns="http://www.w3.org/2000/svg" xmlns:xlink="http://www.w3.org/1999/xlink" xmlns:lucid="lucid" width="3013" height="2255"><g transform="translate(830 -65)" lucid:page-tab-id="0_0"><path d="M-1000-1000h3500v3500h-3500z" fill="#fff"/><path d="M313 126h641c3.3 0 6 2.7 6 6v2142c0 3.3-2.7 6-6 6H-784c-3.3 0-6-2.7-6-6V106c0-3.3 2.7-6 6-6H254c3.3 0 8.4 1.18 11.4 2.64zm-1103 0H313" stroke="#5e5e5e" stroke-width="3" fill="#e5e5e5"/><path d="M376 206h238c3.3 0 6 2.7 6 6v322c0 3.3-2.7 6-6 6H-34c-3.3 0-6-2.7-6-6V186c0-3.3 2.7-6 6-6h384c3.3 0 7.64 2.13 9.66 4.76zm-416 0h416M283 706h571c3.3 0 6 2.7 6 6v1462c0 3.3-2.7 6-6 6H-694c-3.3 0-6-2.7-6-6V686c0-3.3 2.7-6 6-6h924c3.3 0 8.35 1.3 11.25 2.9zm-983 0h983" stroke="#5e5e5e" stroke-width="3" fill="#fff"/><path d="M516 766h168c3.3 0 6 2.7 6 6v522c0 3.3-2.7 6-6 6H226c-3.3 0-6-2.7-6-6V746c0-3.3 2.7-6 6-6h270c3.3 0 7.27 2.37 8.84 5.28zm-296 0h296" stroke="#5e5e5e" stroke-width="3" fill="#e5e5e5"/><use xlink:href="#a" transform="matrix(1,0,0,1,228,740) translate(18.555555555555586 24.888888888888886)"/><path d="M-149 846h283c3.3 0 6 2.7 6 6v402c0 3.3-2.7 6-6 6h-768c-3.3 0-6-2.7-6-6V826c0-3.3 2.7-6 6-6h456c3.3 0 7.78 2 9.98 4.5zm-491 0h491" stroke="#5e5e5e" stroke-width="3" fill="#e5e5e5"/><use xlink:href="#b" transform="matrix(1,0,0,1,-632,820) translate(114.10493827160496 24.888888888888886)"/><path d="M-600 1076c0-3.3 2.7-6 6-6h288c3.3 0 6 2.7 6 6v128c0 3.3-2.7 6-6 6h-288c-3.3 0-6-2.7-6-6z" stroke="#5e5e5e" stroke-width="3" fill="#c7e8ac" fill-opacity=".5"/><use xlink:href="#c" transform="matrix(1,0,0,1,-588,1082) translate(5.993827160493851 64.76388888888889)"/><path d="M240 306c0-3.3 2.7-6 6-6h288c3.3 0 6 2.7 6 6v188c0 3.3-2.7 6-6 6H246c-3.3 0-6-2.7-6-6z" stroke="#5e5e5e" stroke-width="3" fill="#c1e4f7" fill-opacity=".39"/><use xlink:href="#d" transform="matrix(1,0,0,1,252,312) translate(55.20987654320987 96.38888888888889)"/><path d="M-240 886c0-3.3 2.7-6 6-6H74c3.3 0 6 2.7 6 6v128c0 3.3-2.7 6-6 6h-308c-3.3 0-6-2.7-6-6z" stroke="#5e5e5e" stroke-width="3" fill="#c7e8ac" fill-opacity=".5"/><use xlink:href="#e" transform="matrix(1,0,0,1,-228,892) translate(-1.333333333333286 64.22222222222223)"/><path d="M1829.1 375.25h305.83c3.32 0 6 2.7 6 6v542c0 3.3-2.68 6-6 6H1303.1c-3.3 0-6-2.7-6-6v-568c0-3.3 2.7-6 6-6h494c3.33 0 7.9 1.9 10.25 4.24zm-532 0h532" stroke="#5e5e5e" stroke-width="3" fill="#fff"/><path d="M1589.02 566c0-3.3 2.7-6 6-6h248c3.32 0 6 2.7 6 6v148c0 3.3-2.68 6-6 6h-248c-3.3 0-6-2.7-6-6z" stroke="#5e5e5e" stroke-width="3" fill="#ff0" fill-opacity=".5"/><use xlink:href="#f" transform="matrix(1,0,0,1,1601.021505899389,572) translate(0.12345679012348398 75.88888888888889)"/><path d="M964 652.2h306.76" stroke="#5e5e5e" stroke-width="5" fill="none"/><path d="M964.06 654.7h-2.56v-5h2.56" fill="#5e5e5e"/><path d="M1287.52 652.2l-14.26 4.64v-9.27z" stroke="#5e5e5e" stroke-width="5" fill="#5e5e5e"/><path d="M336.63 544v135.64" stroke="#5e5e5e" stroke-width="5" fill="none"/><path d="M339.13 544.06h-5v-2.56h5" fill="#5e5e5e"/><path d="M336.63 696.4L332 682.15h9.26z" stroke="#5e5e5e" stroke-width="5" fill="#5e5e5e"/><path d="M1831 1346h305.9c3.3 0 6 2.7 6 6v575c0 3.3-2.7 6-6 6H1306c-3.3 0-6-2.7-6-6v-601c0-3.3 2.7-6 6-6h494c3.3 0 7.86 1.94 10.16 4.32zm-531 0h531" stroke="#5e5e5e" stroke-width="3" fill="#fff"/><path d="M1719.02 933.25v360.4" stroke="#5e5e5e" stroke-width="5" fill="none"/><path d="M1721.52 933.3h-5v-2.55h5" fill="#5e5e5e"/><path d="M1719.02 1310.4l-4.63-14.26h9.26z" stroke="#5e5e5e" stroke-width="5" fill="#5e5e5e"/><path d="M-240 1076c0-3.3 2.7-6 6-6H74c3.3 0 6 2.7 6 6v128c0 3.3-2.7 6-6 6h-308c-3.3 0-6-2.7-6-6z" stroke="#5e5e5e" stroke-width="3" fill="#c7e8ac" fill-opacity=".5"/><use xlink:href="#g" transform="matrix(1,0,0,1,-228,1082) translate(-6.475308641975289 64.22222222222223)"/><path d="M-600 886c0-3.3 2.7-6 6-6h288c3.3 0 6 2.7 6 6v128c0 3.3-2.7 6-6 6h-288c-3.3 0-6-2.7-6-6z" stroke="#5e5e5e" stroke-width="3" fill="#c7e8ac" fill-opacity=".5"/><use xlink:href="#h" transform="matrix(1,0,0,1,-588,892) translate(-0.8765432098765018 64.22222222222223)"/><path d="M265 806c0-3.3 2.7-6 6-6h368c3.3 0 6 2.7 6 6v135c0 3.3-2.7 6-6 6H271c-3.3 0-6-2.7-6-6z" stroke="#5e5e5e" stroke-width="3" fill="#c7e8ac" fill-opacity=".5"/><use xlink:href="#i" transform="matrix(1,0,0,1,277,812) translate(-0.5432098765432158 67.72222222222223)"/><path d="M265 971c0-3.3 2.7-6 6-6h368c3.3 0 6 2.7 6 6v135c0 3.3-2.7 6-6 6H271c-3.3 0-6-2.7-6-6z" stroke="#5e5e5e" stroke-width="3" fill="#c7e8ac" fill-opacity=".5"/><use xlink:href="#j" transform="matrix(1,0,0,1,277,977) translate(15.012345679012356 67.17013888888889)"/><path d="M265 1136c0-3.3 2.7-6 6-6h368c3.3 0 6 2.7 6 6v135c0 3.3-2.7 6-6 6H271c-3.3 0-6-2.7-6-6z" stroke="#5e5e5e" stroke-width="3" fill="#c7e8ac" fill-opacity=".5"/><use xlink:href="#k" transform="matrix(1,0,0,1,277,1142) translate(19.333333333333314 67.17013888888889)"/><path d="M200 1346h364c3.3 0 6 2.7 6 6v742c0 3.3-2.7 6-6 6h-988c-3.3 0-6-2.7-6-6v-768c0-3.3 2.7-6 6-6h588c3.3 0 8.03 1.76 10.53 3.93zm-630 0h630" stroke="#5e5e5e" stroke-width="3" fill="#e5e5e5"/><use xlink:href="#l" transform="matrix(1,0,0,1,-422,1320) translate(180.10493827160496 24.888888888888886)"/><path d="M-55.75 1426c0-3.3 2.7-6 6-6h299.5c3.3 0 6 2.7 6 6v128c0 3.3-2.7 6-6 6h-299.5c-3.3 0-6-2.7-6-6z" stroke="#5e5e5e" stroke-width="3" fill="#c7e8ac" fill-opacity=".5"/><use xlink:href="#m" transform="matrix(1,0,0,1,-43.75,1432) translate(1.9691358024691112 64.76388888888889)"/><path d="M180 1686c0-3.3 2.7-6 6-6h343.75c3.3 0 6 2.7 6 6v128c0 3.3-2.7 6-6 6H186c-3.3 0-6-2.7-6-6z" stroke="#5e5e5e" stroke-width="3" fill="#c7e8ac" fill-opacity=".5"/><use xlink:href="#n" transform="matrix(1,0,0,1,192,1692) translate(2.0617283950617207 64.76388888888889)"/><path d="M100 1562.5v51.5c0 3.3 2.7 6 6 6h245.88c3.3 0 6 2.7 6 6v50.68" stroke="#5e5e5e" stroke-width="2" fill="none"/><path d="M101 1562.53h-2v-1.03h2" fill="#5e5e5e"/><path d="M347.7 1659.32l10.18 17.22 10.18-17.22" stroke="#5e5e5e" stroke-width="2" fill="none"/><path d="M-300 1686c0-3.3 2.7-6 6-6h228c3.3 0 6 2.7 6 6v128c0 3.3-2.7 6-6 6h-228c-3.3 0-6-2.7-6-6z" stroke="#5e5e5e" stroke-width="3" fill="#a3d977" fill-opacity=".75"/><use xlink:href="#o" transform="matrix(1,0,0,1,-288,1692) translate(0.14814814814816657 64.76388888888889)"/><path d="M100 1562.5v51.5c0 3.3-2.7 6-6 6h-268c-3.3 0-6 2.7-6 6v50.68" stroke="#5e5e5e" stroke-width="2" fill="none"/><path d="M101 1562.53h-2v-1.03h2" fill="#5e5e5e"/><path d="M-190.18 1659.32l10.18 17.22 10.18-17.22" stroke="#5e5e5e" stroke-width="2" fill="none"/><path d="M-380 1426c0-3.3 2.7-6 6-6h208c3.3 0 6 2.7 6 6v128c0 3.3-2.7 6-6 6h-208c-3.3 0-6-2.7-6-6z" stroke="#5e5e5e" stroke-width="3" fill="#c7e8ac" fill-opacity=".5"/><use xlink:href="#p" transform="matrix(1,0,0,1,-368,1432) translate(1.9251659625829693 64.642794876953)"/><path d="M-360 1906c0-3.3 2.7-6 6-6H-6c3.3 0 6 2.7 6 6v128c0 3.3-2.7 6-6 6h-348c-3.3 0-6-2.7-6-6z" stroke="#5e5e5e" stroke-width="3" fill="#c7e8ac" fill-opacity=".5"/><use xlink:href="#q" transform="matrix(1,0,0,1,-348,1912) translate(-1.1666666666666288 64.22222222222223)"/><path d="M-180 1897.5V1840" stroke="#5e5e5e" stroke-width="2" fill="none"/><path d="M-179 1898.5h-2v-1.03h2" fill="#5e5e5e"/><path d="M-180 1824.74l4.64 14.26h-9.28z" stroke="#5e5e5e" stroke-width="2" fill="#fff"/><use xlink:href="#r" transform="matrix(1,0,0,1,-172,1854.0867750202947) translate(0 14.222222222222223)"/><path d="M-780 149.33c0-3.3 2.7-6 6-6h228c3.3 0 6 2.7 6 6v91.34c0 3.3-2.7 6-6 6h-228c-3.3 0-6-2.7-6-6z" stroke="#000" stroke-opacity="0" stroke-width="3" fill="#fff" fill-opacity="0"/><use xlink:href="#s" transform="matrix(1,0,0,1,-775,148.33333333333346) translate(27.175925925926066 65.15972222222213)"/><path d="M1420 420h240v60h-240z" fill="none"/><use xlink:href="#t" transform="matrix(1,0,0,1,1420,420) translate(-79.84567901234558 62.2222222222222)"/><path d="M1601.44 1596.5h240v60h-240z" fill="none"/><use xlink:href="#u" transform="matrix(1,0,0,1,1601.4442729762486,1596.5) translate(7.978395061728449 62.2222222222222)"/><path d="M-670 720h240v60h-240z" fill="none"/><use xlink:href="#v" transform="matrix(1,0,0,1,-670,720) translate(3.4135802469136394 39.77777777777777)"/><path d="M-20 246c0-3.3 2.7-6 6-6h228c3.3 0 6 2.7 6 6v56.67c0 3.3-2.7 6-6 6H-14c-3.3 0-6-2.7-6-6z" stroke="#000" stroke-opacity="0" stroke-width="3" fill="#fff" fill-opacity="0"/><use xlink:href="#w" transform="matrix(1,0,0,1,-15,245) translate(18.78395061728402 42.798611111111086)"/><path d="M-58.25 1490h-98.43" stroke="#5e5e5e" stroke-width="2" fill="none"/><path d="M-57.25 1491h-1.03v-2h1.03" fill="#5e5e5e"/><path d="M-139.32 1479.82l-17.22 10.18 17.22 10.18M538.25 1750h10.27m10.28 0h20.55m10.27 0h20.55m10.27 0H641m10.26 0h20.55m10.28 0h20.55m10.27 0h20.55m10.28 0H754l3.03-.82 2.15-2.15.82-3.03v-9.9m0-9.9v-19.8m0-9.9v-19.8m0-9.9v-19.78m0-9.9v-19.8m0-9.9v-19.8m0-9.9v-19.78m0-9.9v-19.8m0-9.9v-19.8m0-9.9v-19.8m0-9.9v-19.78m0-9.9v-19.8m0-9.9v-19.8m0-9.9v-19.8m0-9.88v-19.8m0-9.9v-19.8m0-9.9V1259m0-9.9v-19.78m0-9.9v-9.9l-.82-3.03-2.15-2.15-3.03-.82h-8.8m-8.8 0h-17.63m-8.8 0h-17.62m-8.8 0h-17.62m-8.8 0h-8.8" stroke="#5e5e5e" stroke-width="2" fill="none"/><path d="M538.28 1751h-1.03v-2h1.03" fill="#5e5e5e"/><path d="M665.68 1193.32l-17.22 10.18 17.22 10.18M538.25 1750h10.27m10.28 0h20.55m10.27 0h20.55m10.27 0H641m10.26 0h20.55m10.28 0h20.55m10.27 0h20.55m10.28 0H754l3.03-.82 2.15-2.15.82-3.03v-9.94m0-9.93v-19.88m0-9.93v-19.88m0-9.93v-19.87m0-9.93v-19.88m0-9.93V1585m0-9.93v-19.87m0-9.94v-19.87m0-9.95v-19.87m0-9.94v-19.87m0-9.94v-19.87m0-9.94v-19.87m0-9.94v-19.86m0-9.94v-19.87m0-9.94v-19.88m0-9.94v-19.87m0-9.93v-19.87m0-9.94v-19.87m0-9.95v-19.87m0-9.94v-19.87m0-9.94v-19.87m0-9.94v-19.87m0-9.94v-19.86m0-9.94v-19.87m0-9.94v-19.9m0-9.92V988.8m0-9.93V959m0-9.94v-19.88m0-9.93v-19.88m0-9.93v-9.94l-.82-3.03-2.15-2.15-3.03-.82h-8.8m-8.8 0h-17.63m-8.8 0h-17.62m-8.8 0h-17.62m-8.8 0h-8.8" stroke="#5e5e5e" stroke-width="2" fill="none"/><path d="M538.28 1751h-1.03v-2h1.03" fill="#5e5e5e"/><path d="M665.68 863.32l-17.22 10.18 17.22 10.18M180.03 1417.5v-10.36m0-10.36v-20.72m0-10.37v-20.73m0-10.36v-20.7m0-10.37v-20.72m0-10.36l-.02-20.72m0-10.36v-20.72m0-10.36v-20.72m0-10.37v-20.73m0-10.36v-20.7m0-10.37v-20.72m0-10.36v-20.72m0-10.36v-10.36l.82-3.03 2.15-2.15 3.03-.82h8.4m8.42 0h16.82m8.4 0h16.82m8.4 0h8.42" stroke="#5e5e5e" stroke-width="2" fill="none"/><path d="M181.03 1418.5h-2v-1.03h2" fill="#5e5e5e"/><path d="M244.32 1048.68l17.22-10.18-17.22-10.18" stroke="#5e5e5e" stroke-width="2" fill="none"/><defs><path fill="#333" d="M85-194c31 0 48 13 60 33l-1-100h32l1 261h-30c-2-10 0-23-3-31C134-8 116 4 85 4 32 4 16-35 15-94c0-66 23-100 70-100zm9 24c-40 0-46 34-46 75 0 40 6 74 45 74 42 0 51-32 51-76 0-42-9-74-50-73" id="x"/><path fill="#333" d="M24-231v-30h32v30H24zM24 0v-190h32V0H24" id="y"/><path fill="#333" d="M141-36C126-15 110 5 73 4 37 3 15-17 15-53c-1-64 63-63 125-63 3-35-9-54-41-54-24 1-41 7-42 31l-33-3c5-37 33-52 76-52 45 0 72 20 72 64v82c-1 20 7 32 28 27v20c-31 9-61-2-59-35zM48-53c0 20 12 33 32 33 41-3 63-29 60-74-43 2-92-5-92 41" id="z"/><path fill="#333" d="M24 0v-261h32V0H24" id="A"/><path fill="#333" d="M100-194c62-1 85 37 85 99 1 63-27 99-86 99S16-35 15-95c0-66 28-99 85-99zM99-20c44 1 53-31 53-75 0-43-8-75-51-75s-53 32-53 75 10 74 51 75" id="B"/><path fill="#333" d="M177-190C167-65 218 103 67 71c-23-6-38-20-44-43l32-5c15 47 100 32 89-28v-30C133-14 115 1 83 1 29 1 15-40 15-95c0-56 16-97 71-98 29-1 48 16 59 35 1-10 0-23 2-32h30zM94-22c36 0 50-32 50-73 0-42-14-75-50-75-39 0-46 34-46 75s6 73 46 73" id="C"/><path fill="#333" d="M101-234c-31-9-42 10-38 44h38v23H63V0H32v-167H5v-23h27c-7-52 17-82 69-68v24" id="D"/><path fill="#333" d="M114-163C36-179 61-72 57 0H25l-1-190h30c1 12-1 29 2 39 6-27 23-49 58-41v29" id="E"/><path fill="#333" d="M210-169c-67 3-38 105-44 169h-31v-121c0-29-5-50-35-48C34-165 62-65 56 0H25l-1-190h30c1 10-1 24 2 32 10-44 99-50 107 0 11-21 27-35 58-36 85-2 47 119 55 194h-31v-121c0-29-5-49-35-48" id="F"/><path fill="#333" d="M100-194c63 0 86 42 84 106H49c0 40 14 67 53 68 26 1 43-12 49-29l28 8c-11 28-37 45-77 45C44 4 14-33 15-96c1-61 26-98 85-98zm52 81c6-60-76-77-97-28-3 7-6 17-6 28h103" id="G"/><path fill="#333" d="M117-194c89-4 53 116 60 194h-32v-121c0-31-8-49-39-48C34-167 62-67 57 0H25l-1-190h30c1 10-1 24 2 32 11-22 29-35 61-36" id="H"/><path fill="#333" d="M59-47c-2 24 18 29 38 22v24C64 9 27 4 27-40v-127H5v-23h24l9-43h21v43h35v23H59v120" id="I"/><path fill="#333" d="M135-143c-3-34-86-38-87 0 15 53 115 12 119 90S17 21 10-45l28-5c4 36 97 45 98 0-10-56-113-15-118-90-4-57 82-63 122-42 12 7 21 19 24 35" id="J"/><g id="a"><use transform="matrix(0.08641975308641973,0,0,0.08641975308641973,0,0)" xlink:href="#x"/><use transform="matrix(0.08641975308641973,0,0,0.08641975308641973,17.283950617283946,0)" xlink:href="#y"/><use transform="matrix(0.08641975308641973,0,0,0.08641975308641973,24.111111111111107,0)" xlink:href="#z"/><use transform="matrix(0.08641975308641973,0,0,0.08641975308641973,41.39506172839505,0)" xlink:href="#A"/><use transform="matrix(0.08641975308641973,0,0,0.08641975308641973,48.222222222222214,0)" xlink:href="#B"/><use transform="matrix(0.08641975308641973,0,0,0.08641975308641973,65.50617283950615,0)" xlink:href="#C"/><use transform="matrix(0.08641975308641973,0,0,0.08641975308641973,82.7901234567901,0)" xlink:href="#D"/><use transform="matrix(0.08641975308641973,0,0,0.08641975308641973,91.43209876543207,0)" xlink:href="#E"/><use transform="matrix(0.08641975308641973,0,0,0.08641975308641973,101.71604938271602,0)" xlink:href="#z"/><use transform="matrix(0.08641975308641973,0,0,0.08641975308641973,118.99999999999997,0)" xlink:href="#C"/><use transform="matrix(0.08641975308641973,0,0,0.08641975308641973,136.28395061728392,0)" xlink:href="#F"/><use transform="matrix(0.08641975308641973,0,0,0.08641975308641973,162.1234567901234,0)" xlink:href="#G"/><use transform="matrix(0.08641975308641973,0,0,0.08641975308641973,179.40740740740736,0)" xlink:href="#H"/><use transform="matrix(0.08641975308641973,0,0,0.08641975308641973,196.6913580246913,0)" xlink:href="#I"/><use transform="matrix(0.08641975308641973,0,0,0.08641975308641973,205.3333333333333,0)" xlink:href="#J"/></g><path fill="#333" d="M84 4C-5 8 30-112 23-190h32v120c0 31 7 50 39 49 72-2 45-101 50-169h31l1 190h-30c-1-10 1-25-2-33-11 22-28 36-60 37" id="K"/><g id="b"><use transform="matrix(0.08641975308641973,0,0,0.08641975308641973,0,0)" xlink:href="#F"/><use transform="matrix(0.08641975308641973,0,0,0.08641975308641973,25.8395061728395,0)" xlink:href="#G"/><use transform="matrix(0.08641975308641973,0,0,0.08641975308641973,43.12345679012344,0)" xlink:href="#H"/><use transform="matrix(0.08641975308641973,0,0,0.08641975308641973,60.4074074074074,0)" xlink:href="#K"/><use transform="matrix(0.08641975308641973,0,0,0.08641975308641973,77.69135802469134,0)" xlink:href="#D"/><use transform="matrix(0.08641975308641973,0,0,0.08641975308641973,86.33333333333331,0)" xlink:href="#E"/><use transform="matrix(0.08641975308641973,0,0,0.08641975308641973,96.61728395061726,0)" xlink:href="#z"/><use transform="matrix(0.08641975308641973,0,0,0.08641975308641973,113.90123456790121,0)" xlink:href="#C"/><use transform="matrix(0.08641975308641973,0,0,0.08641975308641973,131.18518518518516,0)" xlink:href="#F"/><use transform="matrix(0.08641975308641973,0,0,0.08641975308641973,157.02469135802465,0)" xlink:href="#G"/><use transform="matrix(0.08641975308641973,0,0,0.08641975308641973,174.3086419753086,0)" xlink:href="#H"/><use transform="matrix(0.08641975308641973,0,0,0.08641975308641973,191.59259259259255,0)" xlink:href="#I"/><use transform="matrix(0.08641975308641973,0,0,0.08641975308641973,200.23456790123453,0)" xlink:href="#J"/></g><path fill="#333" d="M233-177c-1 41-23 64-60 70L243 0h-38l-65-103H63V0H30v-248c88 3 205-21 203 71zM63-129c60-2 137 13 137-47 0-61-80-42-137-45v92" id="L"/><path fill="#333" d="M115-194c53 0 69 39 70 98 0 66-23 100-70 100C84 3 66-7 56-30L54 0H23l1-261h32v101c10-23 28-34 59-34zm-8 174c40 0 45-34 45-75 0-40-5-75-45-74-42 0-51 32-51 76 0 43 10 73 51 73" id="M"/><path fill="#333" d="M143 0L79-87 56-68V0H24v-261h32v163l83-92h37l-77 82L181 0h-38" id="N"/><path fill="#333" d="M63-220v92h138v28H63V0H30v-248h175v28H63" id="O"/><g id="c"><use transform="matrix(0.08641975308641973,0,0,0.08641975308641973,0,0)" xlink:href="#L"/><use transform="matrix(0.08641975308641973,0,0,0.08641975308641973,22.38271604938271,0)" xlink:href="#K"/><use transform="matrix(0.08641975308641973,0,0,0.08641975308641973,39.66666666666666,0)" xlink:href="#A"/><use transform="matrix(0.08641975308641973,0,0,0.08641975308641973,46.493827160493815,0)" xlink:href="#G"/><use transform="matrix(0.08641975308641973,0,0,0.08641975308641973,63.77777777777776,0)" xlink:href="#M"/><use transform="matrix(0.08641975308641973,0,0,0.08641975308641973,81.0617283950617,0)" xlink:href="#B"/><use transform="matrix(0.08641975308641973,0,0,0.08641975308641973,98.34567901234566,0)" xlink:href="#B"/><use transform="matrix(0.08641975308641973,0,0,0.08641975308641973,115.6296296296296,0)" xlink:href="#N"/><use transform="matrix(0.08641975308641973,0,0,0.08641975308641973,131.18518518518516,0)" xlink:href="#O"/><use transform="matrix(0.08641975308641973,0,0,0.08641975308641973,150.1111111111111,0)" xlink:href="#E"/><use transform="matrix(0.08641975308641973,0,0,0.08641975308641973,160.39506172839504,0)" xlink:href="#z"/><use transform="matrix(0.08641975308641973,0,0,0.08641975308641973,177.67901234567898,0)" xlink:href="#C"/><use transform="matrix(0.08641975308641973,0,0,0.08641975308641973,194.96296296296293,0)" xlink:href="#F"/><use transform="matrix(0.08641975308641973,0,0,0.08641975308641973,220.80246913580243,0)" xlink:href="#G"/><use transform="matrix(0.08641975308641973,0,0,0.08641975308641973,238.08641975308637,0)" xlink:href="#H"/><use transform="matrix(0.08641975308641973,0,0,0.08641975308641973,255.37037037037032,0)" xlink:href="#I"/></g><path fill="#333" d="M240 0l2-218c-23 76-54 145-80 218h-23L58-218 59 0H30v-248h44l77 211c21-75 51-140 76-211h43V0h-30" id="P"/><path fill="#333" d="M205 0l-28-72H64L36 0H1l101-248h38L239 0h-34zm-38-99l-47-123c-12 45-31 82-46 123h93" id="Q"/><path fill="#333" d="M96-169c-40 0-48 33-48 73s9 75 48 75c24 0 41-14 43-38l32 2c-6 37-31 61-74 61-59 0-76-41-82-99-10-93 101-131 147-64 4 7 5 14 7 22l-32 3c-4-21-16-35-41-35" id="R"/><path fill="#333" d="M108 0H70L1-190h34L89-25l56-165h34" id="S"/><path fill="#333" d="M179-190L93 31C79 59 56 82 12 73V49c39 6 53-20 64-50L1-190h34L92-34l54-156h33" id="T"/><g id="d"><use transform="matrix(0.08641975308641976,0,0,0.08641975308641976,0,0)" xlink:href="#P"/><use transform="matrix(0.08641975308641976,0,0,0.08641975308641976,25.83950617283951,0)" xlink:href="#z"/><use transform="matrix(0.08641975308641976,0,0,0.08641975308641976,43.12345679012346,0)" xlink:href="#y"/><use transform="matrix(0.08641975308641976,0,0,0.08641975308641976,49.95061728395062,0)" xlink:href="#H"/><use transform="matrix(0.08641975308641976,0,0,0.08641975308641976,67.23456790123457,0)" xlink:href="#Q"/><use transform="matrix(0.08641975308641976,0,0,0.08641975308641976,87.97530864197532,0)" xlink:href="#R"/><use transform="matrix(0.08641975308641976,0,0,0.08641975308641976,103.53086419753087,0)" xlink:href="#I"/><use transform="matrix(0.08641975308641976,0,0,0.08641975308641976,112.17283950617285,0)" xlink:href="#y"/><use transform="matrix(0.08641975308641976,0,0,0.08641975308641976,119.00000000000001,0)" xlink:href="#S"/><use transform="matrix(0.08641975308641976,0,0,0.08641975308641976,134.55555555555557,0)" xlink:href="#y"/><use transform="matrix(0.08641975308641976,0,0,0.08641975308641976,141.38271604938274,0)" xlink:href="#I"/><use transform="matrix(0.08641975308641976,0,0,0.08641975308641976,150.0246913580247,0)" xlink:href="#T"/></g><path fill="#333" d="M143 4C61 4 22-44 18-125c-5-107 100-154 193-111 17 8 29 25 37 43l-32 9c-13-25-37-40-76-40-61 0-88 39-88 99 0 61 29 100 91 101 35 0 62-11 79-27v-45h-74v-28h105v86C228-13 192 4 143 4" id="U"/><path fill="#333" d="M185-189c-5-48-123-54-124 2 14 75 158 14 163 119 3 78-121 87-175 55-17-10-28-26-33-46l33-7c5 56 141 63 141-1 0-78-155-14-162-118-5-82 145-84 179-34 5 7 8 16 11 25" id="V"/><path fill="#333" d="M115-194c55 1 70 41 70 98S169 2 115 4C84 4 66-9 55-30l1 105H24l-1-265h31l2 30c10-21 28-34 59-34zm-8 174c40 0 45-34 45-75s-6-73-45-74c-42 0-51 32-51 76 0 43 10 73 51 73" id="W"/><g id="e"><use transform="matrix(0.08641975308641973,0,0,0.08641975308641973,0,0)" xlink:href="#U"/><use transform="matrix(0.08641975308641973,0,0,0.08641975308641973,24.197530864197525,0)" xlink:href="#z"/><use transform="matrix(0.08641975308641973,0,0,0.08641975308641973,41.48148148148147,0)" xlink:href="#F"/><use transform="matrix(0.08641975308641973,0,0,0.08641975308641973,67.32098765432096,0)" xlink:href="#G"/><use transform="matrix(0.08641975308641973,0,0,0.08641975308641973,84.60493827160491,0)" xlink:href="#V"/><use transform="matrix(0.08641975308641973,0,0,0.08641975308641973,105.34567901234564,0)" xlink:href="#G"/><use transform="matrix(0.08641975308641973,0,0,0.08641975308641973,122.62962962962958,0)" xlink:href="#I"/><use transform="matrix(0.08641975308641973,0,0,0.08641975308641973,131.27160493827157,0)" xlink:href="#K"/><use transform="matrix(0.08641975308641973,0,0,0.08641975308641973,148.55555555555551,0)" xlink:href="#W"/><use transform="matrix(0.08641975308641973,0,0,0.08641975308641973,165.83950617283946,0)" xlink:href="#O"/><use transform="matrix(0.08641975308641973,0,0,0.08641975308641973,184.7654320987654,0)" xlink:href="#E"/><use transform="matrix(0.08641975308641973,0,0,0.08641975308641973,195.04938271604934,0)" xlink:href="#z"/><use transform="matrix(0.08641975308641973,0,0,0.08641975308641973,212.3333333333333,0)" xlink:href="#C"/><use transform="matrix(0.08641975308641973,0,0,0.08641975308641973,229.61728395061724,0)" xlink:href="#F"/><use transform="matrix(0.08641975308641973,0,0,0.08641975308641973,255.45679012345673,0)" xlink:href="#G"/><use transform="matrix(0.08641975308641973,0,0,0.08641975308641973,272.74074074074065,0)" xlink:href="#H"/><use transform="matrix(0.08641975308641973,0,0,0.08641975308641973,290.0246913580246,0)" xlink:href="#I"/></g><path fill="#333" d="M137 0h-34L2-248h35l83 218 83-218h36" id="X"/><path fill="#333" d="M206 0h-36l-40-164L89 0H53L-1-190h32L70-26l43-164h34l41 164 42-164h31" id="Y"/><g id="f"><use transform="matrix(0.08641975308641973,0,0,0.08641975308641973,0,0)" xlink:href="#U"/><use transform="matrix(0.08641975308641973,0,0,0.08641975308641973,24.197530864197525,0)" xlink:href="#z"/><use transform="matrix(0.08641975308641973,0,0,0.08641975308641973,41.48148148148147,0)" xlink:href="#F"/><use transform="matrix(0.08641975308641973,0,0,0.08641975308641973,67.32098765432096,0)" xlink:href="#G"/><use transform="matrix(0.08641975308641973,0,0,0.08641975308641973,84.60493827160491,0)" xlink:href="#X"/><use transform="matrix(0.08641975308641973,0,0,0.08641975308641973,104.7407407407407,0)" xlink:href="#y"/><use transform="matrix(0.08641975308641973,0,0,0.08641975308641973,111.56790123456788,0)" xlink:href="#G"/><use transform="matrix(0.08641975308641973,0,0,0.08641975308641973,128.85185185185182,0)" xlink:href="#Y"/><use transform="matrix(0.08641975308641973,0,0,0.08641975308641973,151.23456790123453,0)" xlink:href="#P"/><use transform="matrix(0.08641975308641973,0,0,0.08641975308641973,177.07407407407405,0)" xlink:href="#B"/><use transform="matrix(0.08641975308641973,0,0,0.08641975308641973,194.35802469135797,0)" xlink:href="#x"/><use transform="matrix(0.08641975308641973,0,0,0.08641975308641973,211.64197530864192,0)" xlink:href="#G"/><use transform="matrix(0.08641975308641973,0,0,0.08641975308641973,228.92592592592587,0)" xlink:href="#A"/></g><path fill="#333" d="M30 0v-248h33v221h125V0H30" id="Z"/><g id="g"><use transform="matrix(0.08641975308641973,0,0,0.08641975308641973,0,0)" xlink:href="#Z"/><use transform="matrix(0.08641975308641973,0,0,0.08641975308641973,17.283950617283946,0)" xlink:href="#G"/><use transform="matrix(0.08641975308641973,0,0,0.08641975308641973,34.56790123456789,0)" xlink:href="#z"/><use transform="matrix(0.08641975308641973,0,0,0.08641975308641973,51.85185185185183,0)" xlink:href="#x"/><use transform="matrix(0.08641975308641973,0,0,0.08641975308641973,69.13580246913578,0)" xlink:href="#G"/><use transform="matrix(0.08641975308641973,0,0,0.08641975308641973,86.41975308641973,0)" xlink:href="#E"/><use transform="matrix(0.08641975308641973,0,0,0.08641975308641973,96.70370370370368,0)" xlink:href="#M"/><use transform="matrix(0.08641975308641973,0,0,0.08641975308641973,113.98765432098763,0)" xlink:href="#B"/><use transform="matrix(0.08641975308641973,0,0,0.08641975308641973,131.27160493827157,0)" xlink:href="#z"/><use transform="matrix(0.08641975308641973,0,0,0.08641975308641973,148.55555555555551,0)" xlink:href="#E"/><use transform="matrix(0.08641975308641973,0,0,0.08641975308641973,158.83950617283946,0)" xlink:href="#x"/><use transform="matrix(0.08641975308641973,0,0,0.08641975308641973,176.1234567901234,0)" xlink:href="#O"/><use transform="matrix(0.08641975308641973,0,0,0.08641975308641973,195.04938271604934,0)" xlink:href="#E"/><use transform="matrix(0.08641975308641973,0,0,0.08641975308641973,205.3333333333333,0)" xlink:href="#z"/><use transform="matrix(0.08641975308641973,0,0,0.08641975308641973,222.61728395061724,0)" xlink:href="#C"/><use transform="matrix(0.08641975308641973,0,0,0.08641975308641973,239.90123456790118,0)" xlink:href="#F"/><use transform="matrix(0.08641975308641973,0,0,0.08641975308641973,265.7407407407407,0)" xlink:href="#G"/><use transform="matrix(0.08641975308641973,0,0,0.08641975308641973,283.02469135802465,0)" xlink:href="#H"/><use transform="matrix(0.08641975308641973,0,0,0.08641975308641973,300.3086419753086,0)" xlink:href="#I"/></g><g id="h"><use transform="matrix(0.0864197530864197,0,0,0.0864197530864197,0,0)" xlink:href="#P"/><use transform="matrix(0.0864197530864197,0,0,0.0864197530864197,25.839506172839492,0)" xlink:href="#z"/><use transform="matrix(0.0864197530864197,0,0,0.0864197530864197,43.123456790123434,0)" xlink:href="#y"/><use transform="matrix(0.0864197530864197,0,0,0.0864197530864197,49.95061728395059,0)" xlink:href="#H"/><use transform="matrix(0.0864197530864197,0,0,0.0864197530864197,67.23456790123453,0)" xlink:href="#P"/><use transform="matrix(0.0864197530864197,0,0,0.0864197530864197,93.07407407407402,0)" xlink:href="#G"/><use transform="matrix(0.0864197530864197,0,0,0.0864197530864197,110.35802469135797,0)" xlink:href="#H"/><use transform="matrix(0.0864197530864197,0,0,0.0864197530864197,127.64197530864193,0)" xlink:href="#K"/><use transform="matrix(0.0864197530864197,0,0,0.0864197530864197,144.92592592592587,0)" xlink:href="#O"/><use transform="matrix(0.0864197530864197,0,0,0.0864197530864197,163.8518518518518,0)" xlink:href="#E"/><use transform="matrix(0.0864197530864197,0,0,0.0864197530864197,174.13580246913574,0)" xlink:href="#z"/><use transform="matrix(0.0864197530864197,0,0,0.0864197530864197,191.4197530864197,0)" xlink:href="#C"/><use transform="matrix(0.0864197530864197,0,0,0.0864197530864197,208.70370370370364,0)" xlink:href="#F"/><use transform="matrix(0.0864197530864197,0,0,0.0864197530864197,234.54320987654313,0)" xlink:href="#G"/><use transform="matrix(0.0864197530864197,0,0,0.0864197530864197,251.82716049382705,0)" xlink:href="#H"/><use transform="matrix(0.0864197530864197,0,0,0.0864197530864197,269.11111111111103,0)" xlink:href="#I"/></g><path fill="#333" d="M30 0v-248h187v28H63v79h144v27H63v87h162V0H30" id="aa"/><path fill="#333" d="M141 0L90-78 38 0H4l68-98-65-92h35l48 74 47-74h35l-64 92 68 98h-35" id="ab"/><path fill="#333" d="M30-248c118-7 216 8 213 122C240-48 200 0 122 0H30v-248zM63-27c89 8 146-16 146-99s-60-101-146-95v194" id="ac"/><g id="i"><use transform="matrix(0.08641975308641976,0,0,0.08641975308641976,0,0)" xlink:href="#aa"/><use transform="matrix(0.08641975308641976,0,0,0.08641975308641976,20.740740740740744,0)" xlink:href="#ab"/><use transform="matrix(0.08641975308641976,0,0,0.08641975308641976,36.296296296296305,0)" xlink:href="#y"/><use transform="matrix(0.08641975308641976,0,0,0.08641975308641976,43.12345679012347,0)" xlink:href="#I"/><use transform="matrix(0.08641975308641976,0,0,0.08641975308641976,51.765432098765444,0)" xlink:href="#U"/><use transform="matrix(0.08641975308641976,0,0,0.08641975308641976,75.96296296296298,0)" xlink:href="#z"/><use transform="matrix(0.08641975308641976,0,0,0.08641975308641976,93.24691358024693,0)" xlink:href="#F"/><use transform="matrix(0.08641975308641976,0,0,0.08641975308641976,119.08641975308643,0)" xlink:href="#G"/><use transform="matrix(0.08641975308641976,0,0,0.08641975308641976,136.37037037037038,0)" xlink:href="#ac"/><use transform="matrix(0.08641975308641976,0,0,0.08641975308641976,158.7530864197531,0)" xlink:href="#y"/><use transform="matrix(0.08641975308641976,0,0,0.08641975308641976,165.58024691358025,0)" xlink:href="#z"/><use transform="matrix(0.08641975308641976,0,0,0.08641975308641976,182.8641975308642,0)" xlink:href="#A"/><use transform="matrix(0.08641975308641976,0,0,0.08641975308641976,189.69135802469137,0)" xlink:href="#B"/><use transform="matrix(0.08641975308641976,0,0,0.08641975308641976,206.97530864197532,0)" xlink:href="#C"/><use transform="matrix(0.08641975308641976,0,0,0.08641975308641976,224.2592592592593,0)" xlink:href="#O"/><use transform="matrix(0.08641975308641976,0,0,0.08641975308641976,243.18518518518516,0)" xlink:href="#E"/><use transform="matrix(0.08641975308641976,0,0,0.08641975308641976,253.4691358024691,0)" xlink:href="#z"/><use transform="matrix(0.08641975308641976,0,0,0.08641975308641976,270.7530864197531,0)" xlink:href="#C"/><use transform="matrix(0.08641975308641976,0,0,0.08641975308641976,288.03703703703707,0)" xlink:href="#F"/><use transform="matrix(0.08641975308641976,0,0,0.08641975308641976,313.87654320987656,0)" xlink:href="#G"/><use transform="matrix(0.08641975308641976,0,0,0.08641975308641976,331.1604938271605,0)" xlink:href="#H"/><use transform="matrix(0.08641975308641976,0,0,0.08641975308641976,348.44444444444446,0)" xlink:href="#I"/></g><path fill="#333" d="M30-248c87 1 191-15 191 75 0 78-77 80-158 76V0H30v-248zm33 125c57 0 124 11 124-50 0-59-68-47-124-48v98" id="ad"/><g id="j"><use transform="matrix(0.08641975308641976,0,0,0.08641975308641976,0,0)" xlink:href="#ad"/><use transform="matrix(0.08641975308641976,0,0,0.08641975308641976,20.740740740740744,0)" xlink:href="#B"/><use transform="matrix(0.08641975308641976,0,0,0.08641975308641976,38.0246913580247,0)" xlink:href="#x"/><use transform="matrix(0.08641975308641976,0,0,0.08641975308641976,55.308641975308646,0)" xlink:href="#y"/><use transform="matrix(0.08641975308641976,0,0,0.08641975308641976,62.13580246913581,0)" xlink:href="#K"/><use transform="matrix(0.08641975308641976,0,0,0.08641975308641976,79.41975308641976,0)" xlink:href="#F"/><use transform="matrix(0.08641975308641976,0,0,0.08641975308641976,105.25925925925927,0)" xlink:href="#ac"/><use transform="matrix(0.08641975308641976,0,0,0.08641975308641976,127.64197530864199,0)" xlink:href="#y"/><use transform="matrix(0.08641975308641976,0,0,0.08641975308641976,134.46913580246914,0)" xlink:href="#z"/><use transform="matrix(0.08641975308641976,0,0,0.08641975308641976,151.7530864197531,0)" xlink:href="#A"/><use transform="matrix(0.08641975308641976,0,0,0.08641975308641976,158.58024691358025,0)" xlink:href="#B"/><use transform="matrix(0.08641975308641976,0,0,0.08641975308641976,175.8641975308642,0)" xlink:href="#C"/><use transform="matrix(0.08641975308641976,0,0,0.08641975308641976,193.14814814814818,0)" xlink:href="#O"/><use transform="matrix(0.08641975308641976,0,0,0.08641975308641976,212.07407407407405,0)" xlink:href="#E"/><use transform="matrix(0.08641975308641976,0,0,0.08641975308641976,222.358024691358,0)" xlink:href="#z"/><use transform="matrix(0.08641975308641976,0,0,0.08641975308641976,239.64197530864197,0)" xlink:href="#C"/><use transform="matrix(0.08641975308641976,0,0,0.08641975308641976,256.9259259259259,0)" xlink:href="#F"/><use transform="matrix(0.08641975308641976,0,0,0.08641975308641976,282.7654320987654,0)" xlink:href="#G"/><use transform="matrix(0.08641975308641976,0,0,0.08641975308641976,300.04938271604937,0)" xlink:href="#H"/><use transform="matrix(0.08641975308641976,0,0,0.08641975308641976,317.3333333333333,0)" xlink:href="#I"/></g><g id="k"><use transform="matrix(0.08641975308641976,0,0,0.08641975308641976,0,0)" xlink:href="#L"/><use transform="matrix(0.08641975308641976,0,0,0.08641975308641976,22.38271604938272,0)" xlink:href="#G"/><use transform="matrix(0.08641975308641976,0,0,0.08641975308641976,39.66666666666667,0)" xlink:href="#W"/><use transform="matrix(0.08641975308641976,0,0,0.08641975308641976,56.95061728395062,0)" xlink:href="#A"/><use transform="matrix(0.08641975308641976,0,0,0.08641975308641976,63.777777777777786,0)" xlink:href="#z"/><use transform="matrix(0.08641975308641976,0,0,0.08641975308641976,81.06172839506173,0)" xlink:href="#T"/><use transform="matrix(0.08641975308641976,0,0,0.08641975308641976,96.61728395061729,0)" xlink:href="#ac"/><use transform="matrix(0.08641975308641976,0,0,0.08641975308641976,119.00000000000001,0)" xlink:href="#y"/><use transform="matrix(0.08641975308641976,0,0,0.08641975308641976,125.82716049382718,0)" xlink:href="#z"/><use transform="matrix(0.08641975308641976,0,0,0.08641975308641976,143.11111111111114,0)" xlink:href="#A"/><use transform="matrix(0.08641975308641976,0,0,0.08641975308641976,149.9382716049383,0)" xlink:href="#B"/><use transform="matrix(0.08641975308641976,0,0,0.08641975308641976,167.22222222222226,0)" xlink:href="#C"/><use transform="matrix(0.08641975308641976,0,0,0.08641975308641976,184.5061728395062,0)" xlink:href="#O"/><use transform="matrix(0.08641975308641976,0,0,0.08641975308641976,203.43209876543213,0)" xlink:href="#E"/><use transform="matrix(0.08641975308641976,0,0,0.08641975308641976,213.71604938271608,0)" xlink:href="#z"/><use transform="matrix(0.08641975308641976,0,0,0.08641975308641976,231.00000000000003,0)" xlink:href="#C"/><use transform="matrix(0.08641975308641976,0,0,0.08641975308641976,248.28395061728398,0)" xlink:href="#F"/><use transform="matrix(0.08641975308641976,0,0,0.08641975308641976,274.1234567901235,0)" xlink:href="#G"/><use transform="matrix(0.08641975308641976,0,0,0.08641975308641976,291.40740740740745,0)" xlink:href="#H"/><use transform="matrix(0.08641975308641976,0,0,0.08641975308641976,308.6913580246914,0)" xlink:href="#I"/></g><g id="l"><use transform="matrix(0.08641975308641973,0,0,0.08641975308641973,0,0)" xlink:href="#C"/><use transform="matrix(0.08641975308641973,0,0,0.08641975308641973,17.283950617283946,0)" xlink:href="#z"/><use transform="matrix(0.08641975308641973,0,0,0.08641975308641973,34.56790123456789,0)" xlink:href="#F"/><use transform="matrix(0.08641975308641973,0,0,0.08641975308641973,60.4074074074074,0)" xlink:href="#G"/><use transform="matrix(0.08641975308641973,0,0,0.08641975308641973,77.69135802469134,0)" xlink:href="#D"/><use transform="matrix(0.08641975308641973,0,0,0.08641975308641973,86.33333333333331,0)" xlink:href="#E"/><use transform="matrix(0.08641975308641973,0,0,0.08641975308641973,96.61728395061726,0)" xlink:href="#z"/><use transform="matrix(0.08641975308641973,0,0,0.08641975308641973,113.90123456790121,0)" xlink:href="#C"/><use transform="matrix(0.08641975308641973,0,0,0.08641975308641973,131.18518518518516,0)" xlink:href="#F"/><use transform="matrix(0.08641975308641973,0,0,0.08641975308641973,157.02469135802465,0)" xlink:href="#G"/><use transform="matrix(0.08641975308641973,0,0,0.08641975308641973,174.3086419753086,0)" xlink:href="#H"/><use transform="matrix(0.08641975308641973,0,0,0.08641975308641973,191.59259259259255,0)" xlink:href="#I"/><use transform="matrix(0.08641975308641973,0,0,0.08641975308641973,200.23456790123453,0)" xlink:href="#J"/></g><g id="m"><use transform="matrix(0.08641975308641976,0,0,0.08641975308641976,0,0)" xlink:href="#U"/><use transform="matrix(0.08641975308641976,0,0,0.08641975308641976,24.19753086419753,0)" xlink:href="#z"/><use transform="matrix(0.08641975308641976,0,0,0.08641975308641976,41.48148148148148,0)" xlink:href="#F"/><use transform="matrix(0.08641975308641976,0,0,0.08641975308641976,67.32098765432099,0)" xlink:href="#G"/><use transform="matrix(0.08641975308641976,0,0,0.08641975308641976,84.60493827160494,0)" xlink:href="#X"/><use transform="matrix(0.08641975308641976,0,0,0.08641975308641976,104.74074074074075,0)" xlink:href="#y"/><use transform="matrix(0.08641975308641976,0,0,0.08641975308641976,111.56790123456791,0)" xlink:href="#G"/><use transform="matrix(0.08641975308641976,0,0,0.08641975308641976,128.85185185185188,0)" xlink:href="#Y"/><use transform="matrix(0.08641975308641976,0,0,0.08641975308641976,151.23456790123458,0)" xlink:href="#O"/><use transform="matrix(0.08641975308641976,0,0,0.08641975308641976,170.1604938271605,0)" xlink:href="#E"/><use transform="matrix(0.08641975308641976,0,0,0.08641975308641976,180.44444444444446,0)" xlink:href="#z"/><use transform="matrix(0.08641975308641976,0,0,0.08641975308641976,197.7283950617284,0)" xlink:href="#C"/><use transform="matrix(0.08641975308641976,0,0,0.08641975308641976,215.01234567901236,0)" xlink:href="#F"/><use transform="matrix(0.08641975308641976,0,0,0.08641975308641976,240.85185185185188,0)" xlink:href="#G"/><use transform="matrix(0.08641975308641976,0,0,0.08641975308641976,258.13580246913585,0)" xlink:href="#H"/><use transform="matrix(0.08641975308641976,0,0,0.08641975308641976,275.4197530864198,0)" xlink:href="#I"/></g><path fill="#333" d="M160-131c35 5 61 23 61 61C221 17 115-2 30 0v-248c76 3 177-17 177 60 0 33-19 50-47 57zm-97-11c50-1 110 9 110-42 0-47-63-36-110-37v79zm0 115c55-2 124 14 124-45 0-56-70-42-124-44v89" id="ae"/><g id="n"><use transform="matrix(0.08641975308641976,0,0,0.08641975308641976,0,0)" xlink:href="#U"/><use transform="matrix(0.08641975308641976,0,0,0.08641975308641976,24.19753086419753,0)" xlink:href="#z"/><use transform="matrix(0.08641975308641976,0,0,0.08641975308641976,41.48148148148148,0)" xlink:href="#F"/><use transform="matrix(0.08641975308641976,0,0,0.08641975308641976,67.32098765432099,0)" xlink:href="#G"/><use transform="matrix(0.08641975308641976,0,0,0.08641975308641976,84.60493827160494,0)" xlink:href="#V"/><use transform="matrix(0.08641975308641976,0,0,0.08641975308641976,105.34567901234568,0)" xlink:href="#y"/><use transform="matrix(0.08641975308641976,0,0,0.08641975308641976,112.17283950617285,0)" xlink:href="#x"/><use transform="matrix(0.08641975308641976,0,0,0.08641975308641976,129.4567901234568,0)" xlink:href="#G"/><use transform="matrix(0.08641975308641976,0,0,0.08641975308641976,146.74074074074076,0)" xlink:href="#ae"/><use transform="matrix(0.08641975308641976,0,0,0.08641975308641976,167.4814814814815,0)" xlink:href="#z"/><use transform="matrix(0.08641975308641976,0,0,0.08641975308641976,184.76543209876544,0)" xlink:href="#E"/><use transform="matrix(0.08641975308641976,0,0,0.08641975308641976,195.0493827160494,0)" xlink:href="#O"/><use transform="matrix(0.08641975308641976,0,0,0.08641975308641976,213.97530864197532,0)" xlink:href="#E"/><use transform="matrix(0.08641975308641976,0,0,0.08641975308641976,224.2592592592593,0)" xlink:href="#z"/><use transform="matrix(0.08641975308641976,0,0,0.08641975308641976,241.54320987654324,0)" xlink:href="#C"/><use transform="matrix(0.08641975308641976,0,0,0.08641975308641976,258.8271604938272,0)" xlink:href="#F"/><use transform="matrix(0.08641975308641976,0,0,0.08641975308641976,284.6666666666667,0)" xlink:href="#G"/><use transform="matrix(0.08641975308641976,0,0,0.08641975308641976,301.95061728395063,0)" xlink:href="#H"/><use transform="matrix(0.08641975308641976,0,0,0.08641975308641976,319.2345679012346,0)" xlink:href="#I"/></g><path fill="#333" d="M219-77C219 17 104-2 11 0l48-248c73 2 169-15 169 57 0 38-24 54-60 60 29 5 51 21 51 54zm-26-111c0-44-62-31-105-33l-16 79c55 0 121 9 121-46zm-7 110c-1-49-69-36-119-38L50-27c61-1 137 12 136-51" id="af"/><path fill="#333" d="M30-147c31-64 166-65 159 27C183-49 158 1 86 4 9 8 1-88 30-147zM88-20c53 0 68-48 68-100 0-31-11-51-44-50-52 1-68 46-68 97 0 32 13 53 44 53" id="ag"/><path fill="#333" d="M165-48c-4 18 1 34 23 27l-3 20c-29 8-62 0-52-35h-2C116-14 99 4 63 4 30 4 8-16 8-49c0-68 71-67 138-67 10-26 0-56-31-54-26 1-42 9-47 31l-32-5c8-67 160-71 144 15-5 28-9 54-15 81zM42-50c3 52 80 24 89-6 7-12 7-24 11-38-47 1-103-4-100 44" id="ah"/><path fill="#333" d="M66-151c12-25 30-51 66-40l-6 26C45-176 58-65 38 0H6l36-190h30" id="ai"/><path fill="#333" d="M133-28C103 26-5 8 13-77c13-62 24-115 90-117 29-1 46 15 56 35l19-102h32L160 0h-30zM45-64c-2 27 10 43 35 43 54-1 69-50 69-103 0-29-15-46-42-46-53-1-58 58-62 106" id="aj"/><path fill="#333" d="M87-220l-18 92h140l-5 28H64L45 0H11l48-248h178l-5 28H87" id="ak"/><path fill="#333" d="M103-194c29 0 47 14 56 36 2-11 5-23 8-32h30L160-5C157 61 82 97 21 62 9 55 4 45 1 30l28-7c7 42 83 31 92-3 4-16 9-38 13-55-13 20-29 36-62 36-40 0-60-25-60-64 0-71 23-131 91-131zm4 24c-53 0-58 54-61 104-2 27 10 44 36 44 49 0 65-50 67-102 1-29-15-46-42-46" id="al"/><path fill="#333" d="M248-111c6-24 9-61-24-58-72 9-57 108-77 169h-31l26-142c3-37-50-30-64-10C52-115 50-51 37 0H6l36-190h30c-1 10-6 24-4 32 13-43 101-52 105 5 13-22 29-41 61-41 90 0 28 129 23 194h-31" id="am"/><path fill="#333" d="M111-194c62-3 86 47 72 106H45c-7 38 6 69 45 68 27-1 43-14 53-32l24 11C152-15 129 4 87 4 38 3 12-23 12-71c0-70 32-119 99-123zm44 81c14-66-71-72-95-28-4 8-8 17-11 28h106" id="an"/><path fill="#333" d="M67-158c22-48 132-52 116 29L158 0h-32l25-140c3-38-53-32-70-12C52-117 51-52 38 0H6l36-190h30" id="ao"/><path fill="#333" d="M51-54c-9 22 5 41 31 30L79-1C43 14 10-4 19-52l22-115H19l5-23h22l19-43h21l-9 43h35l-4 23H73" id="ap"/><g id="o"><use transform="matrix(0.08641975308641973,0,0,0.08641975308641973,0,0)" xlink:href="#af"/><use transform="matrix(0.08641975308641973,0,0,0.08641975308641973,20.740740740740737,0)" xlink:href="#ag"/><use transform="matrix(0.08641975308641973,0,0,0.08641975308641973,38.02469135802468,0)" xlink:href="#ah"/><use transform="matrix(0.08641975308641973,0,0,0.08641975308641973,55.30864197530863,0)" xlink:href="#ai"/><use transform="matrix(0.08641975308641973,0,0,0.08641975308641973,65.59259259259258,0)" xlink:href="#aj"/><use transform="matrix(0.08641975308641973,0,0,0.08641975308641973,82.87654320987653,0)" xlink:href="#ak"/><use transform="matrix(0.08641975308641973,0,0,0.08641975308641973,101.80246913580245,0)" xlink:href="#ai"/><use transform="matrix(0.08641975308641973,0,0,0.08641975308641973,112.08641975308639,0)" xlink:href="#ah"/><use transform="matrix(0.08641975308641973,0,0,0.08641975308641973,129.37037037037035,0)" xlink:href="#al"/><use transform="matrix(0.08641975308641973,0,0,0.08641975308641973,146.6543209876543,0)" xlink:href="#am"/><use transform="matrix(0.08641975308641973,0,0,0.08641975308641973,172.4938271604938,0)" xlink:href="#an"/><use transform="matrix(0.08641975308641973,0,0,0.08641975308641973,189.77777777777774,0)" xlink:href="#ao"/><use transform="matrix(0.08641975308641973,0,0,0.08641975308641973,207.0617283950617,0)" xlink:href="#ap"/></g><g id="p"><use transform="matrix(0.08556293167035474,0,0,0.08556293167035474,0,0)" xlink:href="#ac"/><use transform="matrix(0.08556293167035474,0,0,0.08556293167035474,22.16079930262188,0)" xlink:href="#y"/><use transform="matrix(0.08556293167035474,0,0,0.08556293167035474,28.92027090457991,0)" xlink:href="#R"/><use transform="matrix(0.08556293167035474,0,0,0.08556293167035474,44.32159860524376,0)" xlink:href="#G"/><use transform="matrix(0.08556293167035474,0,0,0.08556293167035474,61.43418493931471,0)" xlink:href="#O"/><use transform="matrix(0.08556293167035474,0,0,0.08556293167035474,80.1724669751224,0)" xlink:href="#E"/><use transform="matrix(0.08556293167035474,0,0,0.08556293167035474,90.35445584389463,0)" xlink:href="#z"/><use transform="matrix(0.08556293167035474,0,0,0.08556293167035474,107.46704217796557,0)" xlink:href="#C"/><use transform="matrix(0.08556293167035474,0,0,0.08556293167035474,124.57962851203652,0)" xlink:href="#F"/><use transform="matrix(0.08556293167035474,0,0,0.08556293167035474,150.1629450814726,0)" xlink:href="#G"/><use transform="matrix(0.08556293167035474,0,0,0.08556293167035474,167.27553141554353,0)" xlink:href="#H"/><use transform="matrix(0.08556293167035474,0,0,0.08556293167035474,184.38811774961445,0)" xlink:href="#I"/></g><g id="q"><use transform="matrix(0.0864197530864197,0,0,0.0864197530864197,0,0)" xlink:href="#V"/><use transform="matrix(0.0864197530864197,0,0,0.0864197530864197,20.74074074074073,0)" xlink:href="#I"/><use transform="matrix(0.0864197530864197,0,0,0.0864197530864197,29.3827160493827,0)" xlink:href="#z"/><use transform="matrix(0.0864197530864197,0,0,0.0864197530864197,46.66666666666664,0)" xlink:href="#H"/><use transform="matrix(0.0864197530864197,0,0,0.0864197530864197,63.950617283950585,0)" xlink:href="#x"/><use transform="matrix(0.0864197530864197,0,0,0.0864197530864197,81.23456790123453,0)" xlink:href="#z"/><use transform="matrix(0.0864197530864197,0,0,0.0864197530864197,98.51851851851849,0)" xlink:href="#E"/><use transform="matrix(0.0864197530864197,0,0,0.0864197530864197,108.80246913580243,0)" xlink:href="#x"/><use transform="matrix(0.0864197530864197,0,0,0.0864197530864197,126.08641975308637,0)" xlink:href="#M"/><use transform="matrix(0.0864197530864197,0,0,0.0864197530864197,143.37037037037032,0)" xlink:href="#B"/><use transform="matrix(0.0864197530864197,0,0,0.0864197530864197,160.65432098765427,0)" xlink:href="#z"/><use transform="matrix(0.0864197530864197,0,0,0.0864197530864197,177.93827160493822,0)" xlink:href="#E"/><use transform="matrix(0.0864197530864197,0,0,0.0864197530864197,188.22222222222217,0)" xlink:href="#x"/><use transform="matrix(0.0864197530864197,0,0,0.0864197530864197,205.5061728395061,0)" xlink:href="#O"/><use transform="matrix(0.0864197530864197,0,0,0.0864197530864197,224.43209876543204,0)" xlink:href="#E"/><use transform="matrix(0.0864197530864197,0,0,0.0864197530864197,234.716049382716,0)" xlink:href="#z"/><use transform="matrix(0.0864197530864197,0,0,0.0864197530864197,251.99999999999994,0)" xlink:href="#C"/><use transform="matrix(0.0864197530864197,0,0,0.0864197530864197,269.2839506172839,0)" xlink:href="#F"/><use transform="matrix(0.0864197530864197,0,0,0.0864197530864197,295.1234567901234,0)" xlink:href="#G"/><use transform="matrix(0.0864197530864197,0,0,0.0864197530864197,312.40740740740733,0)" xlink:href="#H"/><use transform="matrix(0.0864197530864197,0,0,0.0864197530864197,329.6913580246913,0)" xlink:href="#I"/></g><path fill="#333" d="M24 0v-248h195v40H76v63h132v40H76v65h150V0H24" id="aq"/><path fill="#333" d="M144 0l-44-69L55 0H2l70-98-66-92h53l41 62 40-62h54l-67 91 71 99h-54" id="ar"/><path fill="#333" d="M115-3C79 11 28 4 28-45v-112H4v-33h27l15-45h31v45h36v33H77v99c-1 23 16 31 38 25v30" id="as"/><path fill="#333" d="M185-48c-13 30-37 53-82 52C43 2 14-33 14-96s30-98 90-98c62 0 83 45 84 108H66c0 31 8 55 39 56 18 0 30-7 34-22zm-45-69c5-46-57-63-70-21-2 6-4 13-4 21h74" id="at"/><path fill="#333" d="M135-194c87-1 58 113 63 194h-50c-7-57 23-157-34-157-59 0-34 97-39 157H25l-1-190h47c2 12-1 28 3 38 12-26 28-41 61-42" id="au"/><path fill="#333" d="M88-194c31-1 46 15 58 34l-1-101h50l1 261h-48c-2-10 0-23-3-31C134-8 116 4 84 4 32 4 16-41 15-95c0-56 19-97 73-99zm17 164c33 0 40-30 41-66 1-37-9-64-41-64s-38 30-39 65c0 43 13 65 39 65" id="av"/><path fill="#333" d="M137-138c1-29-70-34-71-4 15 46 118 7 119 86 1 83-164 76-172 9l43-7c4 19 20 25 44 25 33 8 57-30 24-41C81-84 22-81 20-136c-2-80 154-74 161-7" id="aw"/><g id="r"><use transform="matrix(0.04938271604938272,0,0,0.04938271604938272,0,0)" xlink:href="#aq"/><use transform="matrix(0.04938271604938272,0,0,0.04938271604938272,11.851851851851853,0)" xlink:href="#ar"/><use transform="matrix(0.04938271604938272,0,0,0.04938271604938272,21.7283950617284,0)" xlink:href="#as"/><use transform="matrix(0.04938271604938272,0,0,0.04938271604938272,27.604938271604947,0)" xlink:href="#at"/><use transform="matrix(0.04938271604938272,0,0,0.04938271604938272,37.48148148148149,0)" xlink:href="#au"/><use transform="matrix(0.04938271604938272,0,0,0.04938271604938272,48.296296296296305,0)" xlink:href="#av"/><use transform="matrix(0.04938271604938272,0,0,0.04938271604938272,59.111111111111114,0)" xlink:href="#aw"/></g><path fill="#333" d="M147 0H94L2-248h55l64 206c17-72 42-137 63-206h54" id="ax"/><path fill="#333" d="M25-224v-37h50v37H25zM25 0v-190h50V0H25" id="ay"/><path fill="#333" d="M231 0h-52l-39-155L100 0H48L-1-190h46L77-45c9-52 24-97 36-145h53l37 145 32-145h46" id="az"/><g id="s"><use transform="matrix(0.21604938271604904,0,0,0.21604938271604904,0,0)" xlink:href="#ax"/><use transform="matrix(0.21604938271604904,0,0,0.21604938271604904,50.33950617283943,0)" xlink:href="#ay"/><use transform="matrix(0.21604938271604904,0,0,0.21604938271604904,71.94444444444433,0)" xlink:href="#at"/><use transform="matrix(0.21604938271604904,0,0,0.21604938271604904,115.15432098765413,0)" xlink:href="#az"/></g><path fill="#333" d="M230 0l2-204L168 0h-37L68-204 70 0H24v-248h70l56 185 57-185h69V0h-46" id="aA"/><path fill="#333" d="M110-194c64 0 96 36 96 99 0 64-35 99-97 99-61 0-95-36-95-99 0-62 34-99 96-99zm-1 164c35 0 45-28 45-65 0-40-10-65-43-65-34 0-45 26-45 65 0 36 10 65 43 65" id="aB"/><path fill="#333" d="M25 0v-261h50V0H25" id="aC"/><g id="t"><use transform="matrix(0.2160493827160493,0,0,0.2160493827160493,0,0)" xlink:href="#ax"/><use transform="matrix(0.2160493827160493,0,0,0.2160493827160493,50.33950617283948,0)" xlink:href="#ay"/><use transform="matrix(0.2160493827160493,0,0,0.2160493827160493,71.9444444444444,0)" xlink:href="#at"/><use transform="matrix(0.2160493827160493,0,0,0.2160493827160493,115.15432098765427,0)" xlink:href="#az"/><use transform="matrix(0.2160493827160493,0,0,0.2160493827160493,175.64814814814807,0)" xlink:href="#aA"/><use transform="matrix(0.2160493827160493,0,0,0.2160493827160493,240.2469135802468,0)" xlink:href="#aB"/><use transform="matrix(0.2160493827160493,0,0,0.2160493827160493,287.5617283950616,0)" xlink:href="#av"/><use transform="matrix(0.2160493827160493,0,0,0.2160493827160493,334.8765432098764,0)" xlink:href="#at"/><use transform="matrix(0.2160493827160493,0,0,0.2160493827160493,378.08641975308626,0)" xlink:href="#aC"/></g><g id="u"><use transform="matrix(0.2160493827160493,0,0,0.2160493827160493,0,0)" xlink:href="#aA"/><use transform="matrix(0.2160493827160493,0,0,0.2160493827160493,64.59876543209873,0)" xlink:href="#aB"/><use transform="matrix(0.2160493827160493,0,0,0.2160493827160493,111.91358024691353,0)" xlink:href="#av"/><use transform="matrix(0.2160493827160493,0,0,0.2160493827160493,159.22839506172832,0)" xlink:href="#at"/><use transform="matrix(0.2160493827160493,0,0,0.2160493827160493,202.43827160493817,0)" xlink:href="#aC"/></g><g id="v"><use transform="matrix(0.1358024691358024,0,0,0.1358024691358024,0,0)" xlink:href="#O"/><use transform="matrix(0.1358024691358024,0,0,0.1358024691358024,29.740740740740726,0)" xlink:href="#E"/><use transform="matrix(0.1358024691358024,0,0,0.1358024691358024,45.90123456790121,0)" xlink:href="#z"/><use transform="matrix(0.1358024691358024,0,0,0.1358024691358024,73.06172839506169,0)" xlink:href="#C"/><use transform="matrix(0.1358024691358024,0,0,0.1358024691358024,100.22222222222217,0)" xlink:href="#F"/><use transform="matrix(0.1358024691358024,0,0,0.1358024691358024,140.8271604938271,0)" xlink:href="#G"/><use transform="matrix(0.1358024691358024,0,0,0.1358024691358024,167.98765432098756,0)" xlink:href="#H"/><use transform="matrix(0.1358024691358024,0,0,0.1358024691358024,195.14814814814804,0)" xlink:href="#I"/><use transform="matrix(0.1358024691358024,0,0,0.1358024691358024,208.7283950617283,0)" xlink:href="#J"/></g><g id="w"><use transform="matrix(0.13580246913580238,0,0,0.13580246913580238,0,0)" xlink:href="#Q"/><use transform="matrix(0.13580246913580238,0,0,0.13580246913580238,32.592592592592574,0)" xlink:href="#R"/><use transform="matrix(0.13580246913580238,0,0,0.13580246913580238,57.037037037036995,0)" xlink:href="#I"/><use transform="matrix(0.13580246913580238,0,0,0.13580246913580238,70.61728395061724,0)" xlink:href="#y"/><use transform="matrix(0.13580246913580238,0,0,0.13580246913580238,81.34567901234563,0)" xlink:href="#S"/><use transform="matrix(0.13580246913580238,0,0,0.13580246913580238,105.79012345679006,0)" xlink:href="#y"/><use transform="matrix(0.13580246913580238,0,0,0.13580246913580238,116.51851851851843,0)" xlink:href="#I"/><use transform="matrix(0.13580246913580238,0,0,0.13580246913580238,130.09876543209867,0)" xlink:href="#y"/><use transform="matrix(0.13580246913580238,0,0,0.13580246913580238,140.82716049382708,0)" xlink:href="#G"/><use transform="matrix(0.13580246913580238,0,0,0.13580246913580238,167.98765432098753,0)" xlink:href="#J"/></g></defs></g></svg>